<svg width="18" height="16" viewBox="0 0 18 16" fill="none" xmlns="http://www.w3.org/2000/svg">
<path d="M1.62237 1.64145C6.09626 1.64145 6.32945 1.64145 10.8033 1.64145C10.8406 1.64145 10.5744 1.30056 10.6176 1.35314C10.4463 1.14538 10.2564 0.949503 10.0665 0.759558C9.87566 0.568765 9.68063 0.380515 9.47287 0.208378C9.3991 0.147324 9.28547 0.0226746 9.18456 0.0226746C4.71068 0.0226746 4.47748 0.0226746 0.0035967 0.0226746C-0.033714 0.0226746 0.232549 0.363558 0.189302 0.310984C0.360592 0.518736 0.550537 0.714617 0.740483 0.904562C0.931276 1.09536 1.12631 1.2836 1.33406 1.45574C1.40699 1.5168 1.52146 1.64145 1.62237 1.64145Z" fill="#FF5733"/>
<path d="M4.00752 0.171877C3.44107 0.288897 2.77711 0.459341 2.59141 1.08514C2.40061 1.7279 2.67366 2.5445 2.73895 3.19065C2.81951 3.99029 2.85682 4.79501 2.85089 5.59888C2.84834 5.97029 3.01285 7.66962 2.28444 7.26006C2.42266 7.36944 2.56173 7.47883 2.69995 7.58822C2.67366 7.56533 2.64822 7.54243 2.62193 7.51953C2.98232 7.89773 3.34271 8.27508 3.70309 8.65327C3.45379 8.3285 3.29607 7.96981 3.01624 7.65606C2.60243 7.19052 2.14792 6.73771 1.6527 6.35782C1.50092 6.2408 1.34235 6.12462 1.17869 6.02287C0.948041 5.85667 1.08711 5.99913 1.59759 6.45109C2.00885 6.98023 2.15894 7.11675 2.04531 6.85897C2.04871 6.76145 1.9902 6.65545 2.00037 6.54861C2.03344 6.20264 2.30988 5.95334 2.5931 5.78883C4.06263 4.93577 6.09182 5.24698 7.68855 5.43777C7.72162 5.44201 7.4596 5.09689 7.50285 5.14946C7.33156 4.94171 7.14161 4.74583 6.95167 4.55588C6.74476 4.34898 6.38353 3.85631 6.06893 3.819C4.65197 3.65025 3.17905 3.47811 1.7799 3.85885C1.28299 3.99368 0.592741 4.22348 0.412124 4.77127C0.18826 5.45134 1.00655 6.13056 1.41697 6.54098C1.74174 6.86575 2.07754 7.18713 2.44895 7.45848C2.5524 7.5348 2.66009 7.60773 2.76778 7.67811C3.21042 7.96472 1.90879 6.77587 1.91981 6.80894C1.9444 6.88271 1.99274 6.96157 2.03005 7.02941C2.24628 7.42032 2.58038 7.75273 2.89328 8.06563C3.17227 8.34461 3.51993 8.7652 3.89728 8.91275C4.60703 9.19173 4.45439 7.94267 4.46372 7.55176C4.48153 6.77587 4.45779 5.99828 4.39504 5.22493C4.35942 4.78314 4.30939 4.34219 4.24749 3.90294C4.19831 3.55188 4.1169 3.18302 4.1822 2.82857C4.31194 2.11967 5.01236 1.9187 5.62629 1.7915C5.6424 1.78811 4.95554 0.974905 4.8894 0.908763C4.69861 0.71797 4.50358 0.529721 4.29582 0.357583C4.23477 0.306705 4.09316 0.15407 4.00752 0.171877Z" fill="#FF5733"/>
<path d="M6.80785 0.856195C5.82675 0.85026 5.56557 1.91361 5.54776 2.70222C5.52317 3.819 5.54522 4.93832 5.54522 6.0551C5.54522 6.60543 5.54522 7.15661 5.54437 7.70694C5.54437 8.13686 5.51469 8.60579 5.69277 9.00858C5.95055 9.59113 6.52971 10.077 6.98931 10.501C7.32935 10.8139 7.71433 11.2074 8.21463 11.1158C8.22565 11.1141 7.54558 10.3009 7.47774 10.233C7.28695 10.0422 7.09192 9.854 6.88416 9.68186C6.82141 9.63014 6.68319 9.48005 6.59585 9.49616C6.39913 9.53177 6.2414 9.50888 6.08198 9.38592C6.32705 9.60724 6.57211 9.82771 6.81717 10.049C6.78834 10.0202 6.75866 9.99053 6.72983 9.96169C6.95115 10.2068 7.17162 10.4518 7.39295 10.6969C7.15043 10.3831 7.16569 9.95067 7.16399 9.57332C7.16145 9.1875 7.16399 8.80252 7.16399 8.41669C7.16399 7.58908 7.16484 6.76146 7.16484 5.93299C7.16484 4.9256 6.82057 2.46395 8.42747 2.47327C8.46478 2.47327 8.19852 2.13239 8.24176 2.18497C8.07047 1.97721 7.88053 1.78133 7.69058 1.59139C7.49979 1.40059 7.30476 1.21234 7.097 1.04021C7.02154 0.98 6.90875 0.856195 6.80785 0.856195Z" fill="#FF5733"/>
<path d="M7.11944 5.76086C11.5933 5.76086 13.5225 5.76086 17.9963 5.76086C18.0337 5.76086 17.7674 5.41998 17.8106 5.47255C17.6394 5.2648 17.4494 5.06892 17.2595 4.87897C17.0687 4.68818 16.8736 4.49993 16.6659 4.32779C16.5921 4.26674 16.4785 4.14209 16.3776 4.14209C11.9037 4.14209 9.97455 4.14209 5.50067 4.14209C5.46336 4.14209 5.72962 4.48297 5.68637 4.4304C5.85766 4.63815 6.04761 4.83403 6.23755 5.02398C6.42835 5.21477 6.62338 5.40302 6.83113 5.57516C6.90406 5.63621 7.01853 5.76086 7.11944 5.76086Z" fill="#BA0C2F"/>
<path d="M11.1501 4.29135C10.5837 4.40837 9.91969 4.57882 9.73398 5.20462C9.54319 5.84738 9.81624 6.66397 9.88153 7.31013C9.96209 8.10976 9.9994 8.91448 9.99346 9.71836C9.99092 10.0898 10.1554 11.7891 9.42702 11.3795C9.56524 11.4889 9.70431 11.5983 9.84252 11.7077C9.81624 11.6848 9.7908 11.6619 9.76451 11.639C10.1249 12.0172 10.4853 12.3946 10.8457 12.7727C10.5964 12.448 10.4386 12.0893 10.1588 11.7755C9.74501 11.31 9.2905 10.8572 8.79528 10.4773C8.6435 10.3603 8.48493 10.2441 8.32127 10.1423C8.09062 9.97614 8.22969 10.1186 8.74016 10.5706C9.15143 11.0997 9.30152 11.2362 9.18789 10.9784C9.19128 10.8809 9.13277 10.7749 9.14295 10.6681C9.17602 10.3221 9.45246 10.0728 9.73568 9.90831C11.2052 9.05525 13.2344 9.36645 14.8311 9.55725C14.8642 9.56149 14.6022 9.21636 14.6454 9.26894C14.4741 9.06118 14.2842 8.8653 14.0942 8.67536C13.8873 8.46845 13.5261 7.97578 13.2115 7.93847C11.7946 7.76973 10.3216 7.59759 8.92248 7.97833C8.42557 8.11315 7.73532 8.34295 7.5547 8.89074C7.33084 9.57081 8.14913 10.25 8.55955 10.6605C8.88432 10.9852 9.22011 11.3066 9.59153 11.578C9.69498 11.6543 9.80267 11.7272 9.91036 11.7976C10.353 12.0842 9.05137 10.8953 9.06239 10.9284C9.08698 11.0022 9.13532 11.081 9.17263 11.1489C9.38886 11.5398 9.72296 11.8722 10.0359 12.1851C10.3148 12.4641 10.6625 12.8847 11.0399 13.0322C11.7496 13.3112 11.597 12.0621 11.6063 11.6712C11.6241 10.8953 11.6004 10.1178 11.5376 9.3444C11.502 8.90261 11.452 8.46167 11.3901 8.02242C11.3409 7.67136 11.2595 7.3025 11.3248 6.94804C11.4545 6.23914 12.1549 6.03817 12.7689 5.91098C12.785 5.90758 12.0981 5.09438 12.032 5.02824C11.8412 4.83745 11.6462 4.6492 11.4384 4.47706C11.3773 4.42618 11.2357 4.27355 11.1501 4.29135Z" fill="#BA0C2F"/>
<path d="M13.9499 4.97564C12.9688 4.96971 12.7077 6.03306 12.6899 6.82167C12.6653 7.93845 12.6873 9.05777 12.6873 10.1745C12.6873 10.7249 12.6873 11.2761 12.6865 11.8264C12.6865 12.2563 12.6568 12.7252 12.8349 13.128C13.0926 13.7106 13.6718 14.1965 14.1314 14.6204C14.4714 14.9333 14.8564 15.3268 15.3567 15.2352C15.3677 15.2335 14.6877 14.4203 14.6198 14.3525C14.429 14.1617 14.234 13.9734 14.0263 13.8013C13.9635 13.7496 13.8253 13.5995 13.7379 13.6156C13.5412 13.6512 13.3835 13.6283 13.2241 13.5054C13.4691 13.7267 13.7142 13.9472 13.9593 14.1685C13.9304 14.1397 13.9008 14.11 13.8719 14.0811C14.0932 14.3262 14.3137 14.5713 14.535 14.8163C14.2925 14.5026 14.3078 14.0701 14.3061 13.6928C14.3035 13.3069 14.3061 12.922 14.3061 12.5361C14.3061 11.7085 14.3069 10.8809 14.3069 10.0524C14.3069 9.04505 13.9627 6.58339 15.5696 6.59272C15.6069 6.59272 15.3406 6.25184 15.3839 6.30441C15.2126 6.09666 15.0226 5.90078 14.8327 5.71083C14.6419 5.52004 14.4468 5.33179 14.2391 5.15965C14.1636 5.09945 14.0508 4.97564 13.9499 4.97564Z" fill="#BA0C2F"/>
<mask id="mask0_1202_773" style="mask-type:alpha" maskUnits="userSpaceOnUse" x="11" y="0" width="5" height="4">
<path d="M13.0183 3.37242C13.9071 2.78544 15.4462 3.0046 15.8974 1.84512C15.9753 1.64431 15.1894 0.96851 15.0615 0.840109C14.9932 0.771563 14.0745 -0.0345685 14.0601 0.00115231C13.6089 1.16063 12.0698 0.941479 11.181 1.52846C11.0982 1.58349 11.9467 2.46299 12.0169 2.53347C12.115 2.63194 12.8673 3.47283 13.0183 3.37242Z" fill="black"/>
</mask>
<g mask="url(#mask0_1202_773)">
<path d="M13.0183 3.37242C13.9071 2.78544 15.4462 3.0046 15.8974 1.84512C15.9753 1.64431 15.1894 0.96851 15.0615 0.840109C14.9932 0.771563 14.0745 -0.0345685 14.0601 0.00115231C13.6089 1.16063 12.0698 0.941479 11.181 1.52846C11.0982 1.58349 11.9467 2.46299 12.0169 2.53347C12.115 2.63194 12.8673 3.47283 13.0183 3.37242Z" fill="#BA0C2F"/>
<path d="M12.3489 0.687093L11.8064 1.16001L12.6831 2.32915L13.7298 3.36322L14.391 3.01677L13.2849 1.91946L12.3489 0.687093Z" fill="white"/>
<path d="M15.1394 0.64715L14.6409 0.16298C14.6409 0.16298 14.3756 0.705928 13.9753 1.08477C13.3966 1.63233 12.6606 1.53692 12.0532 2.05239C11.8782 2.20087 11.6289 2.45892 11.6289 2.45892L12.1601 3.12495C12.1601 3.12495 12.387 2.77542 12.5676 2.58118C13.0973 2.01142 13.9639 2.04602 14.5355 1.51827C14.9387 1.14596 15.1394 0.64715 15.1394 0.64715Z" fill="white"/>
<path d="M12.1314 0.732109L11.8606 0.9683C11.8606 0.9683 12.3827 1.68983 12.7573 2.11923C13.1338 2.55083 13.7814 3.16899 13.7814 3.16899L14.1346 2.98814L13.0494 1.86618L12.1314 0.732109Z" fill="#00205B"/>
<path d="M14.9579 0.670936L14.7199 0.450782C14.7199 0.450782 14.4714 0.823487 14.2103 1.12782C13.6812 1.74478 12.8544 1.61359 12.2453 2.15154C11.9568 2.40638 11.5747 2.87404 11.5747 2.87404L11.8174 3.15215C11.8174 3.15215 12.2049 2.67717 12.4959 2.41619C13.0945 1.87927 13.9012 1.93009 14.4406 1.33361C14.7052 1.04105 14.9579 0.670936 14.9579 0.670936Z" fill="#00205B"/>
</g>
</svg>
