<svg width="22" height="23" viewBox="0 0 22 23" fill="none" xmlns="http://www.w3.org/2000/svg">
<path d="M11 22.2012C9.50326 22.2012 8.09245 21.9147 6.76758 21.3418C5.44987 20.7689 4.28613 19.9775 3.27637 18.9678C2.2666 17.958 1.47526 16.7943 0.902344 15.4766C0.329427 14.1517 0.0429688 12.7409 0.0429688 11.2441C0.0429688 9.7474 0.329427 8.34017 0.902344 7.02246C1.47526 5.69759 2.26302 4.53027 3.26562 3.52051C4.27539 2.51074 5.43913 1.7194 6.75684 1.14648C8.08171 0.573568 9.49251 0.287109 10.9893 0.287109C12.486 0.287109 13.8968 0.573568 15.2217 1.14648C16.5465 1.7194 17.7139 2.51074 18.7236 3.52051C19.7334 4.53027 20.5247 5.69759 21.0977 7.02246C21.6706 8.34017 21.957 9.7474 21.957 11.2441C21.957 12.7409 21.6706 14.1517 21.0977 15.4766C20.5247 16.7943 19.7334 17.958 18.7236 18.9678C17.7139 19.9775 16.5465 20.7689 15.2217 21.3418C13.904 21.9147 12.4967 22.2012 11 22.2012ZM7.39062 15.7559C7.64844 15.7559 7.86686 15.6699 8.0459 15.498L11.0107 12.5117L13.9863 15.498C14.151 15.6699 14.3623 15.7559 14.6201 15.7559C14.8708 15.7559 15.082 15.6699 15.2539 15.498C15.4258 15.319 15.5117 15.1077 15.5117 14.8643C15.5117 14.5993 15.4258 14.388 15.2539 14.2305L12.2676 11.2549L15.2646 8.26855C15.4365 8.08952 15.5225 7.87826 15.5225 7.63477C15.5225 7.39128 15.4365 7.18359 15.2646 7.01172C15.0928 6.83984 14.8851 6.75391 14.6416 6.75391C14.4053 6.75391 14.2012 6.83984 14.0293 7.01172L11.0107 10.0088L8.01367 7.02246C7.83464 6.85775 7.62695 6.77539 7.39062 6.77539C7.14714 6.77539 6.93945 6.86133 6.76758 7.0332C6.5957 7.19792 6.50977 7.4056 6.50977 7.65625C6.50977 7.89258 6.5957 8.10026 6.76758 8.2793L9.75391 11.2549L6.76758 14.2412C6.5957 14.4131 6.50977 14.6208 6.50977 14.8643C6.50977 15.1077 6.5957 15.319 6.76758 15.498C6.93945 15.6699 7.14714 15.7559 7.39062 15.7559Z" fill="black"/>
</svg>
