<svg width="79" height="84" viewBox="0 0 79 84" fill="none" xmlns="http://www.w3.org/2000/svg">
<path d="M8.70215 83.124C6.25423 83.124 4.3265 82.5732 2.91895 81.4717C1.54199 80.4007 0.853516 78.9167 0.853516 77.0195C0.853516 74.0514 1.74089 70.9456 3.51562 67.7021C5.29036 64.4281 7.86068 61.3682 11.2266 58.5225C14.5924 55.6462 18.6468 53.3206 23.3896 51.5459C28.1631 49.7406 33.5179 48.8379 39.4541 48.8379C45.4209 48.8379 50.7757 49.7406 55.5186 51.5459C60.292 53.3206 64.3464 55.6462 67.6816 58.5225C71.0475 61.3682 73.6178 64.4281 75.3926 67.7021C77.1979 70.9456 78.1006 74.0514 78.1006 77.0195C78.1006 78.9167 77.3968 80.4007 75.9893 81.4717C74.6123 82.5732 72.6999 83.124 70.252 83.124H8.70215ZM39.5 40.6221C36.2259 40.6221 33.1966 39.7347 30.4121 37.96C27.6276 36.1546 25.3786 33.7373 23.665 30.708C21.9821 27.6481 21.1406 24.221 21.1406 20.4268C21.1406 16.6937 21.9821 13.3278 23.665 10.3291C25.3786 7.3304 27.6276 4.95898 30.4121 3.21484C33.1966 1.4707 36.2259 0.598633 39.5 0.598633C42.7741 0.598633 45.8034 1.4554 48.5879 3.16895C51.3724 4.88249 53.6061 7.23861 55.2891 10.2373C57.0026 13.2054 57.8594 16.5713 57.8594 20.335C57.8594 24.1598 57.0026 27.6022 55.2891 30.6621C53.6061 33.722 51.3724 36.1546 48.5879 37.96C45.8034 39.7347 42.7741 40.6221 39.5 40.6221Z" fill="#DEDEDE"/>
</svg>
