<svg width="700" height="514" viewBox="0 0 700 514" fill="none" xmlns="http://www.w3.org/2000/svg">
<path d="M474.927 343.985C428.671 344.088 391.092 284.04 391.092 284.04C391.092 284.04 428.402 223.825 474.658 223.721C520.913 223.618 605.188 283.561 605.188 283.561C605.188 283.561 520.962 343.882 474.927 343.985Z" fill="#9E1AB8"/>
<path d="M483.547 357.402C429.582 357.523 385.806 284.053 385.806 284.053C385.806 284.053 429.253 210.387 483.217 210.266C537.182 210.146 635.584 283.494 635.584 283.494C635.584 283.494 537.511 357.281 483.547 357.402Z" stroke="#9E1AB8" stroke-width="0.9068" stroke-miterlimit="10"/>
<path d="M469.385 329.009C435.244 329.085 390.429 283.811 390.429 283.811C390.429 283.811 431.96 239.665 466.098 238.267C489.885 237.333 577.433 283.392 577.433 283.392C577.433 283.392 499.121 328.942 469.385 329.009Z" fill="#F1BB00"/>
<path d="M467.293 255.755C470.777 256.312 474.053 253.94 474.61 250.456C475.167 246.973 472.795 243.697 469.312 243.14C465.828 242.582 462.552 244.954 461.995 248.438C461.438 251.921 463.81 255.197 467.293 255.755Z" fill="white"/>
<path d="M483.756 253.674C483.762 256.107 485.739 258.075 488.172 258.07C490.605 258.064 492.572 256.088 492.567 253.655C492.562 251.222 490.585 249.254 488.152 249.259C485.719 249.265 483.751 251.241 483.756 253.674Z" fill="white"/>
<path d="M499.847 259.12C499.852 261.553 501.829 263.521 504.262 263.515C506.695 263.51 508.663 261.533 508.657 259.1C508.652 256.667 506.675 254.699 504.242 254.705C501.809 254.71 499.841 256.687 499.847 259.12Z" fill="white"/>
<path d="M515.721 265.056C515.726 267.489 517.703 269.457 520.136 269.451C522.569 269.446 524.537 267.469 524.531 265.036C524.526 262.603 522.549 260.636 520.116 260.641C517.683 260.646 515.715 262.623 515.721 265.056Z" fill="white"/>
<path d="M538.213 276.866C535.79 276.872 533.803 274.894 533.798 272.471C533.792 270.048 535.77 268.061 538.193 268.056C540.616 268.05 542.603 270.028 542.608 272.451C542.834 274.873 540.856 276.86 538.213 276.866Z" fill="white"/>
<path d="M462.185 317.74C462.758 321.221 466.044 323.579 469.525 323.006C473.006 322.433 475.364 319.146 474.791 315.665C474.218 312.184 470.932 309.827 467.45 310.4C463.969 310.973 461.612 314.259 462.185 317.74Z" fill="white"/>
<path d="M483.889 312.448C483.894 314.88 485.871 316.848 488.304 316.843C490.737 316.837 492.705 314.861 492.699 312.428C492.694 309.995 490.717 308.027 488.284 308.032C485.851 308.038 483.883 310.015 483.889 312.448Z" fill="white"/>
<path d="M499.953 306.921C499.959 309.354 501.936 311.322 504.369 311.317C506.802 311.311 508.769 309.334 508.764 306.901C508.759 304.468 506.782 302.501 504.349 302.506C501.916 302.511 499.948 304.488 499.953 306.921Z" fill="white"/>
<path d="M515.798 300.961C515.804 303.394 517.781 305.362 520.214 305.356C522.647 305.351 524.614 303.374 524.609 300.941C524.604 298.508 522.627 296.54 520.194 296.546C517.761 296.551 515.793 298.528 515.798 300.961Z" fill="white"/>
<path d="M538.24 288.998C535.817 289.003 533.839 290.99 533.844 293.413C533.85 295.836 535.836 297.814 538.259 297.808C540.682 297.803 542.66 295.816 542.655 293.393C542.87 290.97 540.883 288.992 538.24 288.998Z" fill="white"/>
<path d="M553.878 288.52C551.455 288.525 549.468 286.547 549.463 284.124C549.458 281.701 551.436 279.715 553.858 279.709C556.281 279.704 558.268 281.682 558.274 284.105C558.279 286.527 556.301 288.514 553.878 288.52Z" fill="white"/>
<path d="M471.821 334.098C435.037 334.181 387.127 283.847 387.127 283.847C387.127 283.847 431.731 234.629 468.292 233.225C493.84 232.287 587.787 283.398 587.787 283.398C587.787 283.398 503.759 334.027 471.821 334.098Z" stroke="#F1BB00" stroke-width="0.9068" stroke-miterlimit="10"/>
<path d="M448.415 308.351C416.036 308.424 389.77 284.033 389.77 284.033C389.77 284.033 415.927 259.525 448.305 259.453C480.684 259.38 539.769 283.698 539.769 283.698C539.769 283.698 480.793 308.279 448.415 308.351Z" fill="#6BA8FF"/>
<path d="M451.489 303.507C425.498 303.565 404.309 284.009 404.309 284.009C404.309 284.009 425.41 264.358 451.401 264.3C477.392 264.242 524.793 283.739 524.793 283.739C524.793 283.739 477.48 303.449 451.489 303.507Z" fill="#D6517D"/>
<path d="M421.961 298.045C403.238 298.087 388.229 284.024 388.229 284.024C388.229 284.024 403.395 269.893 421.897 269.851C440.62 269.81 474.572 283.83 474.572 283.83C474.572 283.83 440.463 298.004 421.961 298.045Z" fill="#F1BB00"/>
<path d="M424.594 293.887C411.378 293.916 400.562 283.808 400.562 283.808C400.562 283.808 411.333 273.652 424.548 273.623C437.764 273.593 462.016 283.671 462.016 283.671C462.016 283.671 437.81 293.857 424.594 293.887Z" fill="white"/>
<path d="M560.212 166.919C540.401 172.47 531.658 202.886 531.658 202.886C531.658 202.886 555.054 224.199 574.644 218.429C594.456 212.878 623.23 176.91 623.23 176.91C623.23 176.91 580.023 161.368 560.212 166.919Z" stroke="#9E1AB8" stroke-width="0.9068" stroke-miterlimit="10"/>
<path d="M559.569 173.958C545.041 178.176 531.439 202.876 531.439 202.876C531.439 202.876 554.598 216.701 569.348 213.143C579.695 210.697 611.345 180.23 611.345 180.23C611.345 180.23 572.336 170.405 559.569 173.958Z" fill="#F1BB00"/>
<path d="M562.224 180.367C549.237 183.92 536.06 201.571 536.06 201.571C536.06 201.571 555.241 209.678 568.229 206.345C577.255 204.122 606.5 181.59 606.5 181.59C606.5 181.59 573.45 177.038 562.224 180.367Z" fill="#9E1AB8"/>
<path d="M555.19 186.949C544.183 190.058 537.38 201.086 537.38 201.086C537.38 201.086 548.847 207.007 559.853 203.899C570.859 200.791 588.889 186.654 588.889 186.654C588.889 186.654 566.196 183.841 555.19 186.949Z" fill="#6BA8FF"/>
<path d="M543.09 192.97C535.166 195.19 530.338 203.131 530.338 203.131C530.338 203.131 538.497 207.297 546.421 205.077C554.346 202.857 567.319 192.695 567.319 192.695C567.319 192.695 551.015 190.75 543.09 192.97Z" fill="#F1BB00"/>
<path d="M544.854 194.476C539.13 196.03 535.839 201.765 535.839 201.765C535.839 201.765 541.573 204.836 547.296 203.061C553.019 201.506 562.034 194.217 562.034 194.217C562.034 194.217 550.356 192.701 544.854 194.476Z" fill="white"/>
<path d="M381.668 203.643C369.125 209.178 366.089 230.11 366.089 230.11C366.089 230.11 383.516 242.185 396.279 236.65C408.822 231.115 424.842 204.648 424.842 204.648C424.842 204.648 394.431 198.108 381.668 203.643Z" stroke="#9E1AB8" stroke-width="0.7804" stroke-miterlimit="10"/>
<path d="M381.899 208.285C372.437 212.491 365.869 230.127 365.869 230.127C365.869 230.127 382.625 237.138 392.088 233.372C398.69 230.714 417.14 207.545 417.14 207.545C417.14 207.545 390.041 204.742 381.899 208.285Z" fill="#9E1AB8"/>
<path d="M380.157 217.517C373.116 220.617 369.609 228.554 369.609 228.554C369.609 228.554 377.765 231.399 384.807 228.3C391.848 225.2 402.616 214.163 402.616 214.163C402.616 214.163 387.419 214.417 380.157 217.517Z" fill="#D6517D"/>
<path d="M372.679 222.63C367.617 224.844 365.207 230.576 365.207 230.576C365.207 230.576 370.939 232.546 376.22 230.332C381.281 228.118 388.973 220.171 388.973 220.171C388.973 220.171 377.74 220.416 372.679 222.63Z" fill="#F1BB00"/>
<path d="M374.002 223.266C370.481 224.816 368.728 228.784 368.728 228.784C368.728 228.784 372.916 230.317 376.437 228.547C379.957 226.997 385.451 221.258 385.451 221.258C385.451 221.258 377.523 221.716 374.002 223.266Z" fill="white"/>
<path d="M257.567 -36.898C257.67 9.35722 197.622 46.9365 197.622 46.9365C197.622 46.9365 137.407 9.62638 137.303 -36.6288C137.2 -82.8841 197.143 -167.159 197.143 -167.159C197.143 -167.159 257.464 -82.9329 257.567 -36.898Z" fill="#9E1AB8"/>
<path d="M270.982 -45.4989C271.103 8.46553 197.633 52.2423 197.633 52.2423C197.633 52.2423 123.967 8.79483 123.847 -45.1696C123.726 -99.134 197.074 -197.536 197.074 -197.536C197.074 -197.536 270.861 -99.4633 270.982 -45.4989Z" stroke="#9E1AB8" stroke-width="0.9068" stroke-miterlimit="10"/>
<path d="M242.6 -31.3457C242.676 2.79504 197.402 47.61 197.402 47.61C197.402 47.61 153.256 6.07885 151.858 -28.059C150.924 -51.8454 196.984 -139.393 196.984 -139.393C196.984 -139.393 242.533 -61.0812 242.6 -31.3457Z" fill="#F1BB00"/>
<path d="M247.66 -33.7633C247.743 3.0206 197.41 50.9306 197.41 50.9306C197.41 50.9306 148.191 6.32709 146.787 -30.2336C145.849 -55.7821 196.96 -149.729 196.96 -149.729C196.96 -149.729 247.589 -65.7014 247.66 -33.7633Z" stroke="#F1BB00" stroke-width="0.9068" stroke-miterlimit="10"/>
<path d="M221.941 -10.3833C222.014 21.9953 197.623 48.2613 197.623 48.2613C197.623 48.2613 173.115 22.1048 173.043 -10.2739C172.97 -42.6525 197.287 -101.738 197.287 -101.738C197.287 -101.738 221.869 -42.762 221.941 -10.3833Z" fill="#6BA8FF"/>
<path d="M217.09 -13.4299C217.148 12.5612 197.592 33.7503 197.592 33.7503C197.592 33.7503 177.942 12.6489 177.883 -13.3421C177.825 -39.3331 197.323 -86.7335 197.323 -86.7335C197.323 -86.7335 217.032 -39.4209 217.09 -13.4299Z" fill="#D6517D"/>
<path d="M211.65 16.1083C211.691 34.8306 197.628 49.8401 197.628 49.8401C197.628 49.8401 183.497 34.6735 183.456 16.1714C183.414 -2.55097 197.435 -36.503 197.435 -36.503C197.435 -36.503 211.608 -2.3938 211.65 16.1083Z" fill="#F1BB00"/>
<path d="M207.459 13.4601C207.489 26.6759 197.381 37.4914 197.381 37.4914C197.381 37.4914 187.225 26.7212 187.195 13.5055C187.165 0.289688 197.243 -23.9619 197.243 -23.9619C197.243 -23.9619 207.43 0.244336 207.459 13.4601Z" fill="white"/>
<path d="M117.246 56.371C122.78 68.9137 143.712 71.9505 143.712 71.9505C143.712 71.9505 155.788 54.5226 150.253 41.7597C144.718 29.217 118.25 13.197 118.25 13.197C118.25 13.197 111.711 43.6081 117.246 56.371Z" stroke="#9E1AB8" stroke-width="0.7804" stroke-miterlimit="10"/>
<path d="M121.871 56.1618C126.078 65.6238 143.713 72.1923 143.713 72.1923C143.713 72.1923 150.724 55.4365 146.959 45.9735C144.301 39.3716 121.132 20.9212 121.132 20.9212C121.132 20.9212 118.329 48.02 121.871 56.1618Z" fill="#9E1AB8"/>
<path d="M131.127 57.8698C134.226 64.9113 142.163 68.4178 142.163 68.4178C142.163 68.4178 145.009 60.2616 141.909 53.2201C138.81 46.1786 127.772 35.4104 127.772 35.4104C127.772 35.4104 128.027 50.608 131.127 57.8698Z" fill="#D6517D"/>
<path d="M136.207 65.3603C138.421 70.4215 144.154 72.8315 144.154 72.8315C144.154 72.8315 146.123 67.1003 143.909 61.8189C141.695 56.7578 133.748 49.0663 133.748 49.0663C133.748 49.0663 133.993 60.2992 136.207 65.3603Z" fill="#F1BB00"/>
<path d="M136.867 64.0086C138.417 67.5294 142.386 69.2826 142.386 69.2826C142.386 69.2826 143.918 65.0942 142.148 61.5739C140.598 58.0531 134.859 52.5594 134.859 52.5594C134.859 52.5594 135.318 60.4879 136.867 64.0086Z" fill="white"/>
<path d="M94.1425 561.323C94.039 515.067 154.087 477.488 154.087 477.488C154.087 477.488 214.303 514.798 214.406 561.054C214.51 607.309 154.566 691.584 154.566 691.584C154.566 691.584 94.2456 607.358 94.1425 561.323Z" fill="#9E1AB8"/>
<path d="M80.7238 569.924C80.603 515.959 154.073 472.183 154.073 472.183C154.073 472.183 227.739 515.63 227.859 569.594C227.98 623.559 154.632 721.961 154.632 721.961C154.632 721.961 80.8446 623.888 80.7238 569.924Z" stroke="#9E1AB8" stroke-width="0.9068" stroke-miterlimit="10"/>
<path d="M109.109 555.758C109.032 521.617 154.306 476.802 154.306 476.802C154.306 476.802 198.452 518.333 199.85 552.471C200.784 576.257 154.725 663.805 154.725 663.805C154.725 663.805 109.175 585.493 109.109 555.758Z" fill="#F1BB00"/>
<path d="M104.046 558.179C103.964 521.395 154.297 473.485 154.297 473.485C154.297 473.485 203.516 518.089 204.919 554.649C205.857 580.198 154.746 674.145 154.746 674.145C154.746 674.145 104.117 590.117 104.046 558.179Z" stroke="#F1BB00" stroke-width="0.9068" stroke-miterlimit="10"/>
<path d="M129.766 534.78C129.694 502.401 154.084 476.135 154.084 476.135C154.084 476.135 178.592 502.292 178.665 534.67C178.737 567.049 154.42 626.134 154.42 626.134C154.42 626.134 129.839 567.159 129.766 534.78Z" fill="#6BA8FF"/>
<path d="M134.618 537.876C134.56 511.885 154.116 490.696 154.116 490.696C154.116 490.696 173.766 511.797 173.824 537.788C173.883 563.78 154.385 611.18 154.385 611.18C154.385 611.18 134.676 563.867 134.618 537.876Z" fill="#D6517D"/>
<path d="M140.058 508.337C140.016 489.615 154.079 474.605 154.079 474.605C154.079 474.605 168.21 489.772 168.252 508.274C168.294 526.996 154.273 560.948 154.273 560.948C154.273 560.948 140.099 526.839 140.058 508.337Z" fill="#F1BB00"/>
<path d="M144.25 510.954C144.22 497.738 154.328 486.922 154.328 486.922C154.328 486.922 164.485 497.692 164.514 510.908C164.544 524.124 154.466 548.376 154.466 548.376C154.466 548.376 144.28 524.169 144.25 510.954Z" fill="white"/>
<path d="M234.46 468.005C228.926 455.463 207.994 452.426 207.994 452.426C207.994 452.426 195.918 469.854 201.453 482.617C206.988 495.159 233.456 511.18 233.456 511.18C233.456 511.18 239.995 480.768 234.46 468.005Z" stroke="#9E1AB8" stroke-width="0.7804" stroke-miterlimit="10"/>
<path d="M229.837 468.278C225.631 458.816 207.995 452.248 207.995 452.248C207.995 452.248 200.984 469.004 204.749 478.466C207.407 485.068 230.576 503.519 230.576 503.519C230.576 503.519 233.379 476.42 229.837 468.278Z" fill="#9E1AB8"/>
<path d="M220.581 466.518C217.482 459.477 209.544 455.97 209.544 455.97C209.544 455.97 206.699 464.126 209.798 471.168C212.898 478.209 223.935 488.978 223.935 488.978C223.935 488.978 223.681 473.78 220.581 466.518Z" fill="#D6517D"/>
<path d="M215.497 459.046C213.283 453.985 207.551 451.574 207.551 451.574C207.551 451.574 205.581 457.306 207.796 462.587C210.01 467.648 217.956 475.34 217.956 475.34C217.956 475.34 217.711 464.107 215.497 459.046Z" fill="#F1BB00"/>
<path d="M214.843 460.39C213.293 456.869 209.325 455.116 209.325 455.116C209.325 455.116 207.792 459.304 209.562 462.824C211.112 466.345 216.851 471.839 216.851 471.839C216.851 471.839 216.393 463.91 214.843 460.39Z" fill="white"/>
<path d="M475.675 183.376C435.639 206.593 373.23 173.253 373.23 173.253C373.23 173.253 375.494 102.323 415.31 79.3261C455.346 56.1088 558.452 66.0101 558.452 66.0101C558.452 66.0101 515.712 160.379 475.675 183.376Z" fill="#9E1AB8"/>
<path d="M490.009 190.626C443.374 217.603 368.611 175.92 368.611 175.92C368.611 175.92 369.521 90.4553 416.156 63.2585C462.792 36.2819 584.63 50.5466 584.63 50.5466C584.63 50.5466 536.645 163.649 490.009 190.626Z" stroke="#9E1AB8" stroke-width="0.9068" stroke-miterlimit="10"/>
<path d="M463.318 173.538C433.842 190.784 372.35 173.962 372.35 173.962C372.35 173.962 386.315 114.9 415.129 96.7735C435.365 84.1732 534.035 80.2079 534.035 80.2079C534.035 80.2079 489.056 158.502 463.318 173.538Z" fill="#F1BB00"/>
<path d="M425.952 110.59C422.873 112.359 418.905 111.267 417.136 108.187C415.367 105.107 416.46 101.14 419.54 99.3709C422.619 97.6019 426.587 98.6943 428.356 101.774C430.125 104.854 429.032 108.821 425.952 110.59Z" fill="white"/>
<path d="M444.216 102.626C442.017 103.953 439.371 103.078 438.045 101.098C436.719 98.8986 437.594 96.2534 439.573 94.9274C441.773 93.6009 444.418 94.476 445.744 96.4555C447.07 98.4349 446.416 101.3 444.216 102.626Z" fill="white"/>
<path d="M460.951 99.2694C458.751 100.596 456.106 99.7208 454.78 97.7414C453.454 95.762 454.329 92.8966 456.308 91.5706C458.508 90.2441 461.153 91.1192 462.479 93.0986C463.806 95.2983 463.151 97.9429 460.951 99.2694Z" fill="white"/>
<path d="M477.685 96.356C475.485 97.6825 472.84 96.8074 471.514 94.828C470.188 92.6283 471.063 89.9832 473.042 88.6572C475.242 87.3307 477.887 88.2058 479.213 90.1853C480.54 92.3849 479.885 95.0295 477.685 96.356Z" fill="white"/>
<path d="M497.061 93.7096C494.862 95.0362 492.217 94.1611 490.891 92.1816C489.564 89.982 490.439 87.3368 492.419 86.0108C494.618 84.6843 497.263 85.5595 498.589 87.5389C499.916 89.7385 499.262 92.6034 497.061 93.7096Z" fill="white"/>
<path d="M453.15 157.438C450.07 159.207 448.978 163.175 450.747 166.254C452.516 169.334 456.483 170.426 459.563 168.657C462.642 166.888 463.735 162.921 461.966 159.841C460.197 156.762 456.23 155.669 453.15 157.438Z" fill="white"/>
<path d="M469.204 145.73C467.005 147.057 466.35 149.701 467.676 151.901C469.003 154.101 471.647 154.755 473.847 153.429C476.047 152.102 476.701 149.458 475.375 147.258C474.048 145.058 471.404 144.404 469.204 145.73Z" fill="white"/>
<path d="M480.409 132.72C478.209 134.047 477.554 136.691 478.881 138.891C480.207 141.091 482.852 141.746 485.051 140.419C487.251 139.093 487.906 136.448 486.579 134.248C485.253 132.269 482.608 131.394 480.409 132.72Z" fill="white"/>
<path d="M491.172 119.71C488.972 121.036 488.317 123.681 489.644 125.881C490.97 128.08 493.615 128.735 495.815 127.409C498.014 126.082 498.669 123.438 497.343 121.238C496.016 119.038 493.372 118.383 491.172 119.71Z" fill="white"/>
<path d="M503.03 104.037C500.83 105.363 500.175 108.008 501.502 110.208C502.828 112.407 505.473 113.062 507.673 111.736C509.872 110.409 510.527 107.765 509.201 105.565C507.875 103.586 505.23 102.931 503.03 104.037Z" fill="white"/>
<path d="M510.496 94.4714C511.792 96.5304 514.512 97.1488 516.571 95.8525C518.631 94.5562 519.249 91.8362 517.953 89.7772C516.656 87.7181 513.936 87.0998 511.877 88.3961C509.818 89.6923 509.2 92.4124 510.496 94.4714Z" fill="white"/>
<path d="M468.17 176.592C436.493 194.945 369.71 175.491 369.71 175.491C369.71 175.491 383.662 110.702 414.675 91.0295C436.23 77.3249 543.272 74.6624 543.272 74.6624C543.272 74.6624 495.667 160.452 468.17 176.592Z" stroke="#F1BB00" stroke-width="0.9068" stroke-miterlimit="10"/>
<path d="M434.887 165.861C406.95 182.223 371.91 174.152 371.91 174.152C371.91 174.152 382.405 139.767 410.342 123.405C438.279 107.043 501.697 98.7515 501.697 98.7515C501.697 98.7515 462.824 149.719 434.887 165.861Z" fill="#6BA8FF"/>
<path d="M435.316 160.144C412.878 173.19 384.67 166.645 384.67 166.645C384.67 166.645 392.978 139.094 415.416 126.048C437.854 113.002 488.72 106.281 488.72 106.281C488.72 106.281 457.754 147.099 435.316 160.144Z" fill="#D6517D"/>
<path d="M406.704 170.127C390.645 179.414 370.371 174.834 370.371 174.834C370.371 174.834 376.274 154.997 392.552 145.71C408.611 136.423 445.164 131.495 445.164 131.495C445.164 131.495 422.983 160.84 406.704 170.127Z" fill="#F1BB00"/>
<path d="M407.133 165.269C395.694 171.903 381.369 168.631 381.369 168.631C381.369 168.631 385.523 154.524 397.182 147.89C408.621 141.257 434.604 137.675 434.604 137.675C434.604 137.675 418.572 158.636 407.133 165.269Z" fill="white"/>
<path d="M460.91 -12.5937C446.626 2.19597 454.184 32.7958 454.184 32.7958C454.184 32.7958 485.036 39.5549 499.32 24.7652C513.604 9.97558 520.551 -35.4144 520.551 -35.4144C520.551 -35.4144 475.195 -27.1631 460.91 -12.5937Z" stroke="#9E1AB8" stroke-width="0.9068" stroke-miterlimit="10"/>
<path d="M464.007 -6.21722C453.458 4.59932 453.962 33.0123 453.962 33.0123C453.962 33.0123 480.835 33.3927 491.825 22.7954C499.518 15.5095 511.758 -26.5884 511.758 -26.5884C511.758 -26.5884 473.236 -15.7092 464.007 -6.21722Z" fill="#F1BB00"/>
<path d="M469.524 -1.79407C460.075 7.91869 457.48 29.5104 457.48 29.5104C457.48 29.5104 478.179 26.8209 487.629 17.5487C494.223 11.1463 508.464 -23.0266 508.464 -23.0266C508.464 -23.0266 477.655 -10.1823 469.524 -1.79407Z" fill="#9E1AB8"/>
<path d="M466.682 7.45561C458.552 15.8438 458.36 28.6196 458.36 28.6196C458.36 28.6196 471.134 27.9302 479.265 19.7623C487.396 11.374 495.719 -9.78998 495.719 -9.78998C495.719 -9.78998 474.814 -0.712359 466.682 7.45561Z" fill="#6BA8FF"/>
<path d="M459.218 18.6654C453.504 24.6253 453.305 33.8768 453.305 33.8768C453.305 33.8768 462.555 33.4156 468.268 27.4557C473.982 21.4957 480.115 6.28378 480.115 6.28378C480.115 6.28378 465.151 12.7049 459.218 18.6654Z" fill="#F1BB00"/>
<path d="M461.421 19.1412C457.246 23.3356 457.26 29.9434 457.26 29.9434C457.26 29.9434 463.868 29.7084 467.823 25.5145C471.999 21.3202 476.16 10.5179 476.16 10.5179C476.16 10.5179 465.596 14.7266 461.421 19.1412Z" fill="white"/>
<path d="M324.84 108.426C316.715 119.458 324.469 139.264 324.469 139.264C324.469 139.264 345.618 140.979 353.743 129.727C361.867 118.476 362.459 87.6373 362.459 87.6373C362.459 87.6373 332.965 97.3949 324.84 108.426Z" stroke="#9E1AB8" stroke-width="0.7804" stroke-miterlimit="10"/>
<path d="M327.272 112.604C321.123 120.768 324.249 139.483 324.249 139.483C324.249 139.483 342.305 137.24 348.675 129.296C353.068 123.78 357.408 94.475 357.408 94.475C357.408 94.475 332.542 105.324 327.272 112.604Z" fill="#9E1AB8"/>
<path d="M330.377 121.171C325.765 127.349 326.885 135.937 326.885 135.937C326.885 135.937 335.252 134.376 339.864 128.198C344.475 122.021 348.186 107.034 348.186 107.034C348.186 107.034 334.988 114.993 330.377 121.171Z" fill="#D6517D"/>
<path d="M326.429 129.345C323.135 133.757 323.81 139.923 323.81 139.923C323.81 139.923 329.975 138.808 333.269 134.395C336.563 129.983 339.182 119.184 339.182 119.184C339.182 119.184 329.723 124.932 326.429 129.345Z" fill="#F1BB00"/>
<path d="M327.972 129.577C325.556 132.666 326.227 137.07 326.227 137.07C326.227 137.07 330.63 136.179 332.826 133.09C335.242 130.001 336.987 122.288 336.987 122.288C336.987 122.288 330.388 126.268 327.972 129.577Z" fill="white"/>
<path d="M26.8562 416.044C34.9812 405.013 27.2276 385.206 27.2276 385.206C27.2276 385.206 6.07847 383.492 -2.04611 394.743C-10.1707 405.995 -10.7625 436.833 -10.7625 436.833C-10.7625 436.833 18.7311 427.076 26.8562 416.044Z" stroke="#9E1AB8" stroke-width="0.7804" stroke-miterlimit="10"/>
<path d="M24.4238 411.889C30.5729 403.725 27.4473 385.01 27.4473 385.01C27.4473 385.01 9.39069 387.253 3.02081 395.197C-1.37212 400.713 -5.71182 430.018 -5.71182 430.018C-5.71182 430.018 19.1538 419.169 24.4238 411.889Z" fill="#9E1AB8"/>
<path d="M21.3208 403.283C25.9325 397.105 24.8119 388.518 24.8119 388.518C24.8119 388.518 16.4454 390.078 11.8337 396.256C7.22193 402.434 3.51101 417.42 3.51101 417.42C3.51101 417.42 16.7091 409.461 21.3208 403.283Z" fill="#D6517D"/>
<path d="M25.2658 395.139C28.5598 390.726 27.8853 384.56 27.8853 384.56C27.8853 384.56 21.7203 385.675 18.4262 390.088C15.1322 394.5 12.5132 405.299 12.5132 405.299C12.5132 405.299 21.9717 399.551 25.2658 395.139Z" fill="#F1BB00"/>
<path d="M23.7255 394.928C26.1415 391.839 25.4709 387.435 25.4709 387.435C25.4709 387.435 21.0676 388.326 18.8719 391.415C16.4559 394.504 14.7111 402.217 14.7111 402.217C14.7111 402.217 21.31 398.237 23.7255 394.928Z" fill="white"/>
<path d="M96.9791 -37.5715C120.196 2.46459 86.856 64.8739 86.856 64.8739C86.856 64.8739 15.9259 62.6098 -7.07064 22.7935C-30.288 -17.2427 -20.3866 -120.348 -20.3866 -120.348C-20.3866 -120.348 73.9821 -77.6081 96.9791 -37.5715Z" fill="#9E1AB8"/>
<path d="M104.216 -51.8911C131.192 -5.25552 89.5097 69.5073 89.5097 69.5073C89.5097 69.5073 4.04516 68.5972 -23.1517 21.9621C-50.1283 -24.6735 -35.8635 -146.511 -35.8635 -146.511C-35.8635 -146.511 77.2393 -98.5267 104.216 -51.8911Z" stroke="#9E1AB8" stroke-width="0.9068" stroke-miterlimit="10"/>
<path d="M87.0953 -25.226C104.342 4.25078 87.5192 65.7421 87.5192 65.7421C87.5192 65.7421 28.4571 51.7774 10.331 22.9634C-2.26934 2.72731 -6.23465 -95.9421 -6.23465 -95.9421C-6.23465 -95.9421 72.0597 -50.9632 87.0953 -25.226Z" fill="#F1BB00"/>
<path d="M24.1842 12.1704C25.9532 15.2502 24.8607 19.2174 21.781 20.9864C18.7012 22.7554 14.734 21.663 12.965 18.5833C11.196 15.5035 12.2885 11.5363 15.3682 9.76733C18.448 7.99832 22.4152 9.09071 24.1842 12.1704Z" fill="white"/>
<path d="M16.211 -6.10625C17.5375 -3.90658 16.6624 -1.26144 14.683 0.0645713C12.4834 1.39108 9.83819 0.515949 8.51218 -1.46346C7.18567 -3.66313 8.06083 -6.30827 10.0402 -7.63428C12.0197 -8.96029 14.8845 -8.30592 16.211 -6.10625Z" fill="white"/>
<path d="M90.1685 -30.0375C108.521 1.63948 89.0673 68.423 89.0673 68.423C89.0673 68.423 24.2784 54.4711 4.60553 23.4579C-9.09909 1.90271 -11.7615 -105.14 -11.7615 -105.14C-11.7615 -105.14 74.0277 -57.5344 90.1685 -30.0375Z" stroke="#F1BB00" stroke-width="0.9068" stroke-miterlimit="10"/>
<path d="M79.45 3.22448C95.8121 31.1614 87.7407 66.2014 87.7407 66.2014C87.7407 66.2014 53.356 55.7057 36.994 27.7688C20.6319 -0.168098 12.3402 -63.5856 12.3402 -63.5856C12.3402 -63.5856 63.3082 -24.7129 79.45 3.22448Z" fill="#6BA8FF"/>
<path d="M73.7196 2.78665C86.7653 25.2244 80.2205 53.4328 80.2205 53.4328C80.2205 53.4328 52.669 45.1245 39.6232 22.6867C26.5774 0.248987 19.8556 -50.617 19.8556 -50.617C19.8556 -50.617 60.6738 -19.6511 73.7196 2.78665Z" fill="#D6517D"/>
<path d="M83.6969 31.4186C92.984 47.4771 88.4038 67.7517 88.4038 67.7517C88.4038 67.7517 68.5668 61.8489 59.2793 45.5702C49.9923 29.5117 45.0646 -7.04111 45.0646 -7.04111C45.0646 -7.04111 74.4094 15.1399 83.6969 31.4186Z" fill="#F1BB00"/>
<path d="M78.8521 30.9682C85.4856 42.4071 82.2137 56.7316 82.2137 56.7316C82.2137 56.7316 68.1075 52.5781 61.4735 40.919C54.8399 29.4801 51.2576 3.49695 51.2576 3.49695C51.2576 3.49695 72.2186 19.5293 78.8521 30.9682Z" fill="white"/>
<path d="M21.9898 113.245C33.0211 121.37 52.8276 113.616 52.8276 113.616C52.8276 113.616 54.5424 92.4671 43.2907 84.3425C32.0391 76.2179 1.20076 75.6261 1.20076 75.6261C1.20076 75.6261 10.9584 105.12 21.9898 113.245Z" stroke="#9E1AB8" stroke-width="0.7804" stroke-miterlimit="10"/>
<path d="M26.1701 110.825C34.3336 116.974 53.049 113.848 53.049 113.848C53.049 113.848 50.806 95.7918 42.8622 89.4219C37.3458 85.029 8.04099 80.6893 8.04099 80.6893C8.04099 80.6893 18.8896 105.555 26.1701 110.825Z" fill="#9E1AB8"/>
<path d="M34.7533 107.732C40.931 112.344 49.5188 111.224 49.5188 111.224C49.5188 111.224 47.9582 102.857 41.7805 98.2454C35.6028 93.6336 20.6166 89.9227 20.6166 89.9227C20.6166 89.9227 28.5756 103.121 34.7533 107.732Z" fill="#D6517D"/>
<path d="M42.9122 111.679C47.3249 114.973 53.4908 114.298 53.4908 114.298C53.4908 114.298 52.3757 108.133 47.963 104.839C43.5504 101.545 32.7516 98.926 32.7516 98.926C32.7516 98.926 38.4996 108.384 42.9122 111.679Z" fill="#F1BB00"/>
<path d="M43.128 110.14C46.2171 112.556 50.6208 111.885 50.6208 111.885C50.6208 111.885 49.73 107.482 46.6413 105.286C43.5522 102.87 35.8391 101.125 35.8391 101.125C35.8391 101.125 39.8186 107.724 43.128 110.14Z" fill="white"/>
<path d="M254.708 562.119C231.491 522.082 264.831 459.673 264.831 459.673C264.831 459.673 335.761 461.937 358.758 501.754C381.975 541.79 372.074 644.895 372.074 644.895C372.074 644.895 277.705 602.155 254.708 562.119Z" fill="#9E1AB8"/>
<path d="M247.472 576.457C220.495 529.822 262.178 455.059 262.178 455.059C262.178 455.059 347.643 455.969 374.84 502.604C401.816 549.24 387.551 671.077 387.551 671.077C387.551 671.077 274.448 623.093 247.472 576.457Z" stroke="#9E1AB8" stroke-width="0.9068" stroke-miterlimit="10"/>
<path d="M264.591 549.757C247.344 520.281 264.167 458.789 264.167 458.789C264.167 458.789 323.229 472.754 341.355 501.568C353.955 521.804 357.921 620.474 357.921 620.474C357.921 620.474 279.626 575.495 264.591 549.757Z" fill="#F1BB00"/>
<path d="M327.505 512.417C325.736 509.338 326.829 505.37 329.908 503.601C332.988 501.832 336.955 502.925 338.724 506.005C340.493 509.084 339.401 513.052 336.321 514.821C333.241 516.59 329.274 515.497 327.505 512.417Z" fill="white"/>
<path d="M261.518 554.638C243.166 522.961 262.62 456.178 262.62 456.178C262.62 456.178 327.409 470.13 347.081 501.143C360.786 522.698 363.449 629.741 363.449 629.741C363.449 629.741 277.659 582.135 261.518 554.638Z" stroke="#F1BB00" stroke-width="0.9068" stroke-miterlimit="10"/>
<path d="M272.237 521.353C255.875 493.417 263.947 458.377 263.947 458.377C263.947 458.377 298.331 468.872 314.693 496.809C331.056 524.746 339.347 588.163 339.347 588.163C339.347 588.163 288.379 549.291 272.237 521.353Z" fill="#6BA8FF"/>
<path d="M277.965 521.773C264.919 499.335 271.464 471.127 271.464 471.127C271.464 471.127 299.016 479.435 312.062 501.873C325.107 524.31 331.829 575.176 331.829 575.176C331.829 575.176 291.011 544.211 277.965 521.773Z" fill="#D6517D"/>
<path d="M267.987 493.136C258.7 477.078 263.281 456.803 263.281 456.803C263.281 456.803 283.118 462.706 292.405 478.985C301.692 495.043 306.62 531.596 306.62 531.596C306.62 531.596 277.275 509.415 267.987 493.136Z" fill="#F1BB00"/>
<path d="M272.837 493.563C266.204 482.124 269.476 467.8 269.476 467.8C269.476 467.8 283.582 471.953 290.216 483.612C296.849 495.051 300.432 521.034 300.432 521.034C300.432 521.034 279.471 505.002 272.837 493.563Z" fill="white"/>
<path d="M329.699 411.29C318.667 403.165 298.861 410.918 298.861 410.918C298.861 410.918 297.146 432.067 308.398 440.192C319.649 448.317 350.488 448.908 350.488 448.908C350.488 448.908 340.73 419.415 329.699 411.29Z" stroke="#9E1AB8" stroke-width="0.7804" stroke-miterlimit="10"/>
<path d="M325.521 413.701C317.357 407.552 298.642 410.678 298.642 410.678C298.642 410.678 300.885 428.735 308.828 435.104C314.345 439.497 343.65 443.837 343.65 443.837C343.65 443.837 332.801 418.972 325.521 413.701Z" fill="#9E1AB8"/>
<path d="M316.936 416.829C310.758 412.217 302.171 413.338 302.171 413.338C302.171 413.338 303.731 421.704 309.909 426.316C316.087 430.928 331.073 434.639 331.073 434.639C331.073 434.639 323.114 421.441 316.936 416.829Z" fill="#D6517D"/>
<path d="M308.777 412.855C304.365 409.561 298.199 410.236 298.199 410.236C298.199 410.236 299.314 416.401 303.727 419.695C308.139 422.989 318.938 425.608 318.938 425.608C318.938 425.608 313.19 416.149 308.777 412.855Z" fill="#F1BB00"/>
<path d="M308.56 414.428C305.471 412.012 301.068 412.683 301.068 412.683C301.068 412.683 301.958 417.086 305.047 419.282C308.136 421.698 315.849 423.442 315.849 423.442C315.849 423.442 311.87 416.843 308.56 414.428Z" fill="white"/>
<path d="M396.064 44.1327C373.026 84.2723 302.327 86.6332 302.327 86.6332C302.327 86.6332 268.707 24.1534 291.745 -15.7659C314.783 -55.9055 408.96 -98.8475 408.96 -98.8475C408.96 -98.8475 419.102 3.9931 396.064 44.1327Z" fill="#9E1AB8"/>
<path d="M412.141 43.2311C385.374 89.987 299.694 91.2801 299.694 91.2801C299.694 91.2801 257.677 16.7046 284.445 -30.0513C311.212 -76.8072 424.099 -125.298 424.099 -125.298C424.099 -125.298 438.909 -3.52478 412.141 43.2311Z" stroke="#9E1AB8" stroke-width="0.9068" stroke-miterlimit="10"/>
<path d="M380.421 41.5549C363.306 71.1086 301.889 87.3253 301.889 87.3253C301.889 87.3253 284.358 29.2148 300.37 -0.997164C311.556 -21.9473 395.138 -74.7775 395.138 -74.7775C395.138 -74.7775 395.341 15.7506 380.421 41.5549Z" fill="#F1BB00"/>
<path d="M316.463 5.77957C314.708 8.86719 310.746 9.97733 307.658 8.22212C304.57 6.46692 303.46 2.50469 305.215 -0.582938C306.971 -3.67056 310.933 -4.78076 314.02 -3.02556C317.328 -1.27085 318.218 2.69194 316.463 5.77957Z" fill="white"/>
<path d="M363.661 32.9853C361.906 36.0729 363.016 40.0351 366.103 41.7903C369.191 43.5455 373.153 42.4353 374.908 39.3477C376.664 36.2601 375.553 32.2978 372.466 30.5426C369.378 28.7874 365.416 29.8976 363.661 32.9853Z" fill="white"/>
<path d="M371.549 14.6791C370.233 16.8847 371.12 19.5259 373.105 20.8431C375.311 22.1597 377.952 21.2727 379.269 19.2874C380.586 17.0818 379.699 14.4407 377.713 13.1235C375.507 11.5866 372.866 12.4735 371.549 14.6791Z" fill="white"/>
<path d="M374.814 -2.28581C373.498 -0.0802223 374.385 2.56093 376.37 3.87808C378.576 5.19472 381.217 4.3078 382.534 2.32247C383.851 0.116885 382.964 -2.52434 380.978 -3.84148C378.993 -5.15862 376.132 -4.27113 374.814 -2.28581Z" fill="white"/>
<path d="M386.146 41.7602C367.935 73.519 300.351 89.9698 300.351 89.9698C300.351 89.9698 280.166 26.7992 297.054 -5.61744C308.897 -28.1109 400.182 -84.042 400.182 -84.042C400.182 -84.042 401.943 14.1919 386.146 41.7602Z" stroke="#F1BB00" stroke-width="0.9068" stroke-miterlimit="10"/>
<path d="M352.022 49.3106C335.785 77.3205 301.448 87.97 301.448 87.97C301.448 87.97 293.22 52.9664 309.457 24.9565C325.693 -3.05332 376.267 -42.1532 376.267 -42.1532C376.267 -42.1532 368.039 21.3012 352.022 49.3106Z" fill="#6BA8FF"/>
<path d="M349.369 44.0562C336.424 66.5521 308.91 74.9837 308.91 74.9837C308.91 74.9837 302.239 47.0251 315.184 24.3089C328.129 1.81299 368.808 -29.5556 368.808 -29.5556C368.808 -29.5556 362.314 21.5602 349.369 44.0562Z" fill="#D6517D"/>
<path d="M329.815 66.9817C320.6 83.0816 300.79 89.2933 300.79 89.2933C300.79 89.2933 296.12 69.2597 305.335 52.9396C314.55 36.8397 343.794 14.3073 343.794 14.3073C343.794 14.3073 339.03 50.8818 329.815 66.9817Z" fill="#F1BB00"/>
<path d="M327.605 62.5781C321.023 74.0465 306.936 78.4834 306.936 78.4834C306.936 78.4834 303.6 64.1736 310.182 52.7052C316.764 41.2367 337.433 25.3315 337.433 25.3315C337.433 25.3315 334.187 51.1096 327.605 62.5781Z" fill="white"/>
<path d="M228.024 54.668C226.513 68.3277 243.062 81.5066 243.062 81.5066C243.062 81.5066 262.205 72.4329 263.716 58.7732C265.227 45.1134 250.189 18.0546 250.189 18.0546C250.189 18.0546 229.535 41.0082 228.024 54.668Z" stroke="#9E1AB8" stroke-width="0.7804" stroke-miterlimit="10"/>
<path d="M232.213 56.8452C231.134 66.9798 243.062 81.7108 243.062 81.7108C243.062 81.7108 257.575 70.8854 259.094 60.7499C260.179 53.699 249.325 26.1902 249.325 26.1902C249.325 26.1902 233.074 48.0327 232.213 56.8452Z" fill="#9E1AB8"/>
<path d="M239.277 62.8082C238.413 70.5193 243.495 77.3362 243.495 77.3362C243.495 77.3362 250.09 71.8148 250.954 64.1036C251.818 56.3925 247.6 41.6442 247.6 41.6442C247.6 41.6442 240.141 55.097 239.277 62.8082Z" fill="#D6517D"/>
<path d="M239.957 71.8249C239.308 77.333 243.064 82.3906 243.064 82.3906C243.064 82.3906 247.681 78.4156 248.329 72.9075C248.978 67.3995 245.87 56.8337 245.87 56.8337C245.87 56.8337 240.605 66.3169 239.957 71.8249Z" fill="#F1BB00"/>
<path d="M241.275 71.1486C240.844 75.1143 243.495 78.6326 243.495 78.6326C243.495 78.6326 246.792 75.7618 247.224 71.7961C247.656 67.8304 245.436 60.3463 245.436 60.3463C245.436 60.3463 241.707 67.1829 241.275 71.1486Z" fill="white"/>
<path d="M-44.3592 480.328C-21.3213 440.189 49.3782 437.828 49.3782 437.828C49.3782 437.828 82.9982 500.307 59.9598 540.227C36.9219 580.366 -57.2551 623.308 -57.2551 623.308C-57.2551 623.308 -67.3971 520.468 -44.3592 480.328Z" fill="#9E1AB8"/>
<path d="M-60.436 481.245C-33.6684 434.489 52.0114 433.196 52.0114 433.196C52.0114 433.196 94.0285 507.771 67.2609 554.527C40.4933 601.283 -72.3936 649.773 -72.3936 649.773C-72.3936 649.773 -87.2036 528.001 -60.436 481.245Z" stroke="#9E1AB8" stroke-width="0.9068" stroke-miterlimit="10"/>
<path d="M-28.7152 482.922C-11.6008 453.368 49.8166 437.151 49.8166 437.151C49.8166 437.151 67.3475 495.262 51.3359 525.474C40.1493 546.424 -43.4328 599.254 -43.4328 599.254C-43.4328 599.254 -43.6354 508.726 -28.7152 482.922Z" fill="#F1BB00"/>
<path d="M-34.4414 482.709C-16.2306 450.95 51.3537 434.499 51.3537 434.499C51.3537 434.499 71.5391 497.67 54.6513 530.087C42.8074 552.58 -48.477 608.511 -48.477 608.511C-48.477 608.511 -50.2387 510.277 -34.4414 482.709Z" stroke="#F1BB00" stroke-width="0.9068" stroke-miterlimit="10"/>
<path d="M-0.316748 475.182C15.9201 447.172 50.2575 436.523 50.2575 436.523C50.2575 436.523 58.4856 471.526 42.2488 499.536C26.0119 527.546 -24.5613 566.646 -24.5613 566.646C-24.5613 566.646 -16.3333 503.191 -0.316748 475.182Z" fill="#6BA8FF"/>
<path d="M2.33832 480.457C15.2836 457.961 42.7977 449.529 42.7977 449.529C42.7977 449.529 49.4682 477.488 36.5234 500.204C23.5782 522.7 -17.1004 554.069 -17.1004 554.069C-17.1004 554.069 -10.6069 502.953 2.33832 480.457Z" fill="#D6517D"/>
<path d="M21.8907 457.483C31.1058 441.383 50.9156 435.171 50.9156 435.171C50.9156 435.171 55.586 455.205 46.3714 471.525C37.1564 487.625 7.91169 510.157 7.91169 510.157C7.91169 510.157 12.6756 473.583 21.8907 457.483Z" fill="#F1BB00"/>
<path d="M24.1003 461.928C30.6825 450.46 44.7695 446.023 44.7695 446.023C44.7695 446.023 48.1055 460.333 41.5232 471.801C34.9409 483.269 14.2717 499.175 14.2717 499.175C14.2717 499.175 17.518 473.397 24.1003 461.928Z" fill="white"/>
<path d="M123.677 469.838C125.188 456.178 108.639 442.999 108.639 442.999C108.639 442.999 89.4959 452.073 87.9846 465.732C86.4733 479.392 101.512 506.451 101.512 506.451C101.512 506.451 122.165 483.497 123.677 469.838Z" stroke="#9E1AB8" stroke-width="0.7804" stroke-miterlimit="10"/>
<path d="M119.486 467.641C120.565 457.506 108.637 442.775 108.637 442.775C108.637 442.775 94.1241 453.6 92.6049 463.736C91.5194 470.787 102.374 498.296 102.374 498.296C102.374 498.296 118.625 476.453 119.486 467.641Z" fill="#9E1AB8"/>
<path d="M112.424 461.704C113.288 453.992 108.206 447.176 108.206 447.176C108.206 447.176 101.611 452.697 100.747 460.408C99.8833 468.119 104.101 482.868 104.101 482.868C104.101 482.868 111.56 469.415 112.424 461.704Z" fill="#D6517D"/>
<path d="M111.743 452.67C112.391 447.162 108.635 442.104 108.635 442.104C108.635 442.104 104.019 446.08 103.37 451.588C102.722 457.096 105.829 467.661 105.829 467.661C105.829 467.661 111.315 458.178 111.743 452.67Z" fill="#F1BB00"/>
<path d="M110.422 453.315C110.854 449.35 108.203 445.831 108.203 445.831C108.203 445.831 104.905 448.702 104.474 452.668C104.042 456.633 106.261 464.117 106.261 464.117C106.261 464.117 109.991 457.281 110.422 453.315Z" fill="white"/>
<path d="M-42.2713 42.0339C-2.13166 65.0718 0.229164 135.771 0.229164 135.771C0.229164 135.771 -62.2506 169.391 -102.17 146.353C-142.31 123.315 -185.252 29.1381 -185.252 29.1381C-185.252 29.1381 -82.4109 18.996 -42.2713 42.0339Z" fill="#9E1AB8"/>
<path d="M-43.1889 25.9383C3.56697 52.7059 4.86007 138.386 4.86007 138.386C4.86007 138.386 -69.7154 180.403 -116.471 153.635C-163.227 126.868 -211.718 13.9807 -211.718 13.9807C-211.718 13.9807 -89.9448 -0.829234 -43.1889 25.9383Z" stroke="#9E1AB8" stroke-width="0.9068" stroke-miterlimit="10"/>
<path d="M-44.8803 57.637C-15.3266 74.7514 0.89017 136.169 0.89017 136.169C0.89017 136.169 -57.2203 153.7 -87.4323 137.688C-108.382 126.502 -161.213 42.9194 -161.213 42.9194C-161.213 42.9194 -70.6846 42.7168 -44.8803 57.637Z" fill="#F1BB00"/>
<path d="M-44.6739 51.9396C-12.9151 70.1504 3.53566 137.735 3.53566 137.735C3.53566 137.735 -59.6349 157.92 -92.0516 141.032C-114.545 129.188 -170.476 37.904 -170.476 37.904C-170.476 37.904 -72.2423 36.1423 -44.6739 51.9396Z" stroke="#F1BB00" stroke-width="0.9068" stroke-miterlimit="10"/>
<path d="M-37.1085 86.051C-9.09861 102.288 1.55091 136.625 1.55091 136.625C1.55091 136.625 -33.4527 144.853 -61.4625 128.616C-89.4724 112.38 -128.572 61.8064 -128.572 61.8064C-128.572 61.8064 -65.1179 70.0344 -37.1085 86.051Z" fill="#6BA8FF"/>
<path d="M-19.4367 108.286C-3.3368 117.501 2.87494 137.311 2.87494 137.311C2.87494 137.311 -17.1586 141.982 -33.4788 132.767C-49.5787 123.552 -72.1111 94.3073 -72.1111 94.3073C-72.1111 94.3073 -35.5366 99.0713 -19.4367 108.286Z" fill="#F1BB00"/>
<path d="M393.962 482.43C353.823 459.392 351.462 388.692 351.462 388.692C351.462 388.692 413.941 355.072 453.861 378.111C494 401.149 536.942 495.326 536.942 495.326C536.942 495.326 434.102 505.468 393.962 482.43Z" fill="#9E1AB8"/>
<path d="M394.879 498.501C348.123 471.734 346.83 386.054 346.83 386.054C346.83 386.054 421.406 344.037 468.162 370.804C514.918 397.572 563.408 510.459 563.408 510.459C563.408 510.459 441.635 525.269 394.879 498.501Z" stroke="#9E1AB8" stroke-width="0.9068" stroke-miterlimit="10"/>
<path d="M396.572 466.801C367.018 449.686 350.801 388.269 350.801 388.269C350.801 388.269 408.912 370.738 439.124 386.75C460.074 397.936 512.904 481.518 512.904 481.518C512.904 481.518 422.376 481.721 396.572 466.801Z" fill="#F1BB00"/>
<path d="M432.33 402.8C429.243 401.045 428.132 397.083 429.888 393.995C431.643 390.908 435.605 389.797 438.693 391.553C441.78 393.308 442.89 397.27 441.135 400.358C439.381 403.666 435.418 404.556 432.33 402.8Z" fill="white"/>
<path d="M448.434 414.675C446.229 413.359 445.562 410.717 446.879 408.511C448.195 406.306 450.837 405.639 453.043 406.956C455.248 408.272 455.915 410.914 454.598 413.12C453.282 415.325 450.42 415.992 448.434 414.675Z" fill="white"/>
<path d="M459.477 427.631C457.271 426.314 456.605 423.672 457.921 421.467C459.238 419.261 461.88 418.594 464.085 419.911C466.291 421.228 466.958 423.869 465.641 426.075C464.544 428.06 461.683 428.947 459.477 427.631Z" fill="white"/>
<path d="M470.521 440.638C468.315 439.322 467.648 436.68 468.965 434.474C470.282 432.269 472.923 431.602 475.129 432.919C477.335 434.235 478.001 436.877 476.685 439.083C475.368 441.068 472.726 441.955 470.521 440.638Z" fill="white"/>
<path d="M482.449 456.249C480.243 454.933 479.577 452.291 480.893 450.086C482.21 447.88 484.852 447.213 487.057 448.53C489.263 449.846 489.93 452.488 488.613 454.694C487.296 456.679 484.434 457.346 482.449 456.249Z" fill="white"/>
<path d="M405.124 450.002C402.037 448.246 398.074 449.357 396.319 452.444C394.564 455.532 395.674 459.494 398.762 461.249C401.849 463.004 405.812 461.894 407.567 458.807C409.322 455.719 408.212 451.757 405.124 450.002Z" fill="white"/>
<path d="M423.423 457.926C421.218 456.61 418.576 457.497 417.259 459.482C415.943 461.687 416.83 464.329 418.815 465.646C421.021 466.962 423.662 466.075 424.979 464.09C426.516 461.884 425.629 459.243 423.423 457.926Z" fill="white"/>
<path d="M440.389 461.164C438.183 459.847 435.542 460.734 434.225 462.719C432.908 464.925 433.795 467.566 435.78 468.883C437.986 470.2 440.627 469.313 441.944 467.327C443.261 465.122 442.374 462.481 440.389 461.164Z" fill="white"/>
<path d="M457.137 464.005C454.931 462.689 452.29 463.576 450.973 465.561C449.656 467.546 450.543 470.408 452.529 471.725C454.734 473.042 457.376 472.155 458.693 470.169C460.009 467.964 459.122 465.323 457.137 464.005Z" fill="white"/>
<path d="M476.526 466.609C474.32 465.292 471.679 466.179 470.362 468.164C469.045 470.37 469.932 473.011 471.918 474.328C474.123 475.645 476.764 474.758 478.082 472.773C479.398 470.567 478.511 467.706 476.526 466.609Z" fill="white"/>
<path d="M490.197 474.068C487.992 472.752 487.325 470.11 488.642 467.904C489.958 465.699 492.6 465.032 494.806 466.349C497.011 467.665 497.678 470.307 496.361 472.513C495.044 474.498 492.183 475.385 490.197 474.068Z" fill="white"/>
<path d="M396.363 472.505C364.604 454.294 348.153 386.71 348.153 386.71C348.153 386.71 411.324 366.525 443.741 383.412C466.234 395.256 522.165 486.541 522.165 486.541C522.165 486.541 423.931 488.302 396.363 472.505Z" stroke="#F1BB00" stroke-width="0.9068" stroke-miterlimit="10"/>
<path d="M388.797 438.4C360.787 422.163 350.137 387.826 350.137 387.826C350.137 387.826 385.141 379.598 413.151 395.834C441.161 412.071 480.261 462.645 480.261 462.645C480.261 462.645 416.806 454.417 388.797 438.4Z" fill="#6BA8FF"/>
<path d="M394.079 435.714C371.583 422.769 363.151 395.255 363.151 395.255C363.151 395.255 391.11 388.584 413.826 401.529C436.322 414.474 467.69 455.153 467.69 455.153C467.69 455.153 416.575 448.659 394.079 435.714Z" fill="#D6517D"/>
<path d="M371.126 416.156C355.026 406.941 348.814 387.131 348.814 387.131C348.814 387.131 368.847 382.461 385.168 391.676C401.268 400.891 423.8 430.135 423.8 430.135C423.8 430.135 387.225 425.371 371.126 416.156Z" fill="#F1BB00"/>
<path d="M375.525 413.959C364.057 407.376 359.62 393.289 359.62 393.289C359.62 393.289 373.93 389.953 385.398 396.536C396.867 403.118 412.772 423.787 412.772 423.787C412.772 423.787 386.994 420.541 375.525 413.959Z" fill="white"/>
<path d="M556.489 371.713C536.654 366.692 513.796 388.549 513.796 388.549C513.796 388.549 523.334 418.483 543.169 423.505C563.004 428.527 605.918 411.691 605.918 411.691C605.918 411.691 576.324 376.735 556.489 371.713Z" stroke="#9E1AB8" stroke-width="0.9068" stroke-miterlimit="10"/>
<path d="M552.319 377.638C537.553 373.927 513.357 388.518 513.357 388.518C513.357 388.518 526.405 412.057 541.172 416.209C551.311 419.27 594.019 408.822 594.019 408.822C594.019 408.822 565.101 380.693 552.319 377.638Z" fill="#F1BB00"/>
<path d="M551.453 384.526C538.45 381.251 518.205 389.887 518.205 389.887C518.205 389.887 530.797 406.379 543.801 410.094C552.838 412.717 589.391 407.789 589.391 407.789C589.391 407.789 562.693 387.364 551.453 384.526Z" fill="#9E1AB8"/>
<path d="M541.986 386.707C530.746 383.869 519.526 390.061 519.526 390.061C519.526 390.061 526.379 400.839 537.618 403.677C548.858 406.516 571.318 403.161 571.318 403.161C571.318 403.161 553.226 389.545 541.986 386.707Z" fill="#6BA8FF"/>
<path d="M528.547 385.857C520.613 383.892 512.473 388.316 512.473 388.316C512.473 388.316 517.556 396.014 525.49 397.978C533.424 399.943 549.719 397.704 549.719 397.704C549.719 397.704 536.701 387.821 528.547 385.857Z" fill="#F1BB00"/>
<path d="M529.212 387.862C523.481 386.333 517.762 389.65 517.762 389.65C517.762 389.65 521.298 395.148 527.029 396.678C532.759 398.207 544.209 396.419 544.209 396.419C544.209 396.419 534.942 389.391 529.212 387.862Z" fill="white"/>
<path d="M383.45 314.418C369.79 312.906 356.611 329.456 356.611 329.456C356.611 329.456 365.685 348.598 379.345 350.11C393.005 351.621 420.063 336.582 420.063 336.582C420.063 336.582 397.11 315.929 383.45 314.418Z" stroke="#9E1AB8" stroke-width="0.7804" stroke-miterlimit="10"/>
<path d="M381.256 318.619C371.122 317.54 356.391 329.467 356.391 329.467C356.391 329.467 367.216 343.98 377.352 345.499C384.402 346.585 411.911 335.731 411.911 335.731C411.911 335.731 390.069 319.48 381.256 318.619Z" fill="#9E1AB8"/>
<path d="M375.327 325.671C367.615 324.807 360.799 329.888 360.799 329.888C360.799 329.888 366.32 336.484 374.031 337.348C381.742 338.212 396.491 333.994 396.491 333.994C396.491 333.994 383.038 326.535 375.327 325.671Z" fill="#D6517D"/>
<path d="M366.294 326.338C360.786 325.69 355.728 329.445 355.728 329.445C355.728 329.445 359.703 334.062 365.211 334.711C370.719 335.359 381.285 332.252 381.285 332.252C381.285 332.252 371.802 326.766 366.294 326.338Z" fill="#F1BB00"/>
<path d="M366.958 327.654C362.992 327.223 359.474 329.874 359.474 329.874C359.474 329.874 362.345 333.171 366.311 333.603C370.276 334.034 377.76 331.815 377.76 331.815C377.76 331.815 370.924 328.086 366.958 327.654Z" fill="white"/>
<path d="M166.505 432C185.811 432 201.461 429.25 201.461 425.858C201.461 422.467 185.811 419.717 166.505 419.717C147.199 419.717 131.549 422.467 131.549 425.858C131.549 429.25 147.199 432 166.505 432Z" fill="#27003D"/>
<g filter="url(#filter0_d_920_2717)">
<path d="M137.493 175.162C143.376 177.001 150.515 186.256 150.744 192.12C151.258 204.881 147.888 209.48 133.095 215.458C134.58 215.861 135.436 216.263 136.35 216.263C148.745 216.206 161.082 216.033 173.477 215.976C175.019 215.976 175.761 215.458 175.704 213.849C175.647 212.987 175.819 212.182 175.933 210.457C177.875 211.837 179.531 212.699 180.731 213.964C183.815 217.355 187.642 215.631 191.183 215.803C191.526 215.803 192.154 214.539 192.268 213.849C192.554 212.124 193.525 211.32 194.667 212.699C197.923 216.666 202.207 216.033 206.433 216.033C220.37 216.033 234.307 216.033 248.472 216.033C245.388 213.389 242.36 211.032 239.562 208.33C233.907 202.812 227.738 197.696 224.426 190.223C223.34 187.808 222.484 185.164 222.198 182.577C221.227 174.645 226.596 169.241 234.535 169.931C239.733 170.391 243.845 173.092 247.672 176.369C257.154 184.532 265.15 193.902 272.347 204.134C274.974 207.871 277.316 211.894 282.343 212.987C287.026 213.964 291.539 213.906 295.194 210.4C298.792 206.951 300.506 202.697 299.192 197.638C298.907 196.431 297.993 195.339 297.193 194.362C295.594 192.465 293.88 190.625 292.224 188.786C292.395 188.556 292.567 188.383 292.738 188.153C293.481 188.498 294.337 188.671 294.908 189.188C299.992 194.304 305.589 199.075 309.873 204.824C315.071 211.665 313.3 220.805 306.446 224.599C303.248 226.381 299.135 226.496 294.851 227.53C294.851 247.017 294.851 267.424 294.851 288.579C289.597 284.727 285.484 280.818 282.171 276.162C281.657 275.415 281.657 274.15 281.657 273.115C281.657 258.457 281.657 243.798 281.714 229.14C281.714 226.266 281.486 223.391 281.771 220.575C281.943 218.678 281.2 217.528 279.944 216.436C270.691 208.158 263.037 198.501 256.297 188.153C253.384 183.727 246.073 182.06 241.504 184.014C236.763 186.026 234.478 190.855 235.506 196.661C236.306 201.49 238.419 205.054 243.503 206.261C244.588 206.548 245.616 207.238 246.701 207.411C251.442 208.043 254.926 210.687 257.896 214.194C259.267 215.746 260.752 216.378 262.866 216.321C266.692 216.148 270.462 216.321 274.289 216.263C276.974 216.206 278.344 217.758 279.715 220.345C274.118 220.345 268.977 220.345 264.522 220.345C264.522 224.426 264.636 228.105 264.465 231.784C264.408 233.854 265.15 235.233 266.692 236.67C274.746 244.143 280.344 252.938 279.658 264.493C279.487 267.482 278.687 270.586 277.545 273.345C274.689 279.899 268.749 281.853 262.751 278.059C258.982 275.702 255.726 272.483 252.299 269.666C251.671 269.149 251.042 268.517 250.3 267.884C249.5 269.954 248.929 271.851 248.015 273.575C244.874 279.841 239.39 281.853 233.564 278.117C228.595 274.897 224.311 270.529 219.799 266.62C214.83 262.366 211.117 257.192 208.661 251.214C207.919 249.374 207.976 247.132 207.919 245.063C207.804 240.119 207.233 235.061 209.975 230.519C212.431 226.495 215.287 223.046 220.427 223.334C222.369 223.449 224.54 224.196 226.082 225.403C228.766 227.473 231.108 230.06 233.45 232.531C234.592 233.739 235.449 235.291 236.477 236.728C238.762 232.761 240.247 229.657 242.189 226.955C244.36 223.966 247.615 222.931 251.271 223.219C251.842 221.379 251.671 220.345 249.5 220.345C233.964 220.402 218.485 220.345 202.892 220.345C202.892 220.747 202.778 221.207 202.892 221.264C206.034 223.391 205.405 226.61 205.405 229.715C205.405 247.42 205.405 265.183 205.405 282.888C205.405 283.98 205.405 285.072 205.405 286.222C205.177 286.394 204.891 286.509 204.663 286.682C201.978 284.21 199.522 281.336 196.495 279.439C193.868 277.772 192.211 275.875 191.583 273C191.412 272.196 191.24 271.333 191.24 270.471C191.24 261.101 191.126 251.674 191.297 242.304C191.412 235.636 192.04 228.967 192.383 222.299C192.44 221.782 192.268 221.207 192.154 220.575C190.326 220.575 188.67 220.575 186.442 220.575C189.812 223.909 188.613 227.818 188.613 231.497C188.727 248.914 188.67 266.39 188.67 283.807C188.67 284.612 188.613 285.475 188.499 286.854C187.128 285.819 186.043 285.13 185.072 284.325C182.615 282.255 180.159 280.128 177.703 278.117C174.962 275.817 174.333 273.23 175.419 269.436C175.59 268.804 174.848 267.424 174.162 267.022C170.107 264.665 165.537 262.941 161.825 260.124C157.084 256.445 152.914 252.076 148.745 247.765C144.461 243.338 142.462 237.82 142.747 231.554C142.976 227.358 144.975 224.943 148.916 223.161C154.628 220.632 160.168 220.287 165.423 223.966C168.393 226.036 171.021 228.507 173.819 230.807C174.048 230.979 174.276 231.037 175.076 231.497C175.247 227.703 175.419 224.196 175.647 220.575C162.453 220.575 149.43 220.575 136.35 220.575C135.893 225.058 133.437 228.335 130.696 231.382C127.212 235.233 123.556 238.797 120.072 242.591C116.473 246.5 113.56 250.869 112.647 256.272C112.475 257.307 112.418 258.342 112.304 259.779C117.673 259.434 122.642 258.629 126.755 255.18C127.326 254.72 127.44 253.686 127.611 252.823C128.297 248.57 129.668 244.661 132.523 241.384C134.694 238.855 136.35 238.452 138.863 240.694C142.405 243.856 145.832 247.19 149.03 250.754C150.972 252.881 150.972 255.698 149.487 257.997C147.431 261.159 144.804 263.918 142.519 266.965C141.719 267.999 140.92 269.379 140.92 270.586C141.091 277.312 143.947 283.118 147.088 288.866C152.743 299.156 158.569 309.388 163.938 319.793C166.623 324.966 168.222 330.715 167.479 336.693C166.051 348.248 156.684 358.02 144.29 361.182C136.465 363.136 128.639 363.021 120.757 361.641C119.958 361.526 118.987 361.239 118.415 360.722C114.931 357.503 111.504 354.168 108.077 350.834C107.62 350.432 107.506 349.685 106.935 348.65C108.363 348.765 109.334 348.822 110.305 348.937C120.3 350.03 130.067 349.857 139.206 344.798C151.486 337.958 159.083 324.506 150.801 307.893C146.003 298.351 140.577 289.096 135.436 279.726C135.208 279.324 134.751 278.979 134.694 278.519C133.609 273.115 130.067 272.253 125.155 272.77C122.813 273 119.786 272.138 117.958 270.644C112.532 266.16 107.163 261.504 102.594 256.215C97.5675 250.352 97.9674 243.166 101.908 236.9C104.936 232.014 109.22 227.99 112.989 223.564C113.732 222.702 114.589 222.012 116.074 220.575C111.618 220.575 107.963 220.517 104.307 220.575C101.737 220.632 100.024 219.482 98.4814 216.378C105.907 216.378 112.875 216.378 119.843 216.378C119.9 216.033 119.958 215.746 120.015 215.401C118.016 213.562 116.074 211.607 113.96 209.882C107.963 204.939 101.68 200.225 95.7969 195.052C89.2284 189.303 82.4885 184.302 73.6353 182.75C58.7276 180.221 46.5045 194.304 51.2453 208.675C51.8164 210.457 52.8445 211.492 54.6152 212.124C63.1257 215.286 71.4077 214.481 79.5755 210.745C81.2319 209.997 82.0887 209.02 81.9745 207.066C81.8031 204.134 81.9174 201.202 81.9174 197.581C83.2882 198.386 84.202 198.673 84.7732 199.248C87.8576 202.237 90.8848 205.226 93.7978 208.388C94.5403 209.193 94.9973 210.63 94.9973 211.722C95.0544 234.313 95.0544 256.962 95.0544 279.554C95.0544 280.186 94.9401 280.818 94.883 282.14C89.9709 278.232 85.5729 274.552 82.3172 269.666C81.6889 268.689 81.9174 267.08 81.9174 265.757C81.9174 253.513 81.9745 241.212 82.0316 228.967C82.0316 228.507 81.9745 228.048 81.9174 227.243C80.8321 227.243 79.8611 227.243 78.833 227.243C72.3787 227.3 66.3814 225.806 61.0123 222.069C53.3015 216.666 46.5045 210.227 41.2497 202.352C33.8244 191.258 36.6803 177.691 47.5326 171.77C54.1011 168.206 60.9552 168.839 67.6951 171.31C74.6063 173.84 80.2609 178.381 85.8013 183.095C91.1704 187.636 96.3681 192.522 102.08 196.546C109.22 201.547 117.273 203.617 125.898 200.34C133.095 197.581 136.465 191.89 137.207 184.474C137.721 181.313 137.493 178.266 137.493 175.162ZM267.149 250.696C266.464 247.19 266.064 244.258 265.265 241.441C263.551 235.463 261.152 234.773 256.526 239.142C254.812 240.694 253.384 242.764 252.47 244.891C249.957 250.524 250.014 256.387 251.728 262.251C252.984 266.562 256.468 267.884 260.238 265.24C261.895 264.09 263.551 262.423 264.294 260.641C265.607 257.307 266.293 253.743 267.149 250.696ZM220.941 256.1C221.341 257.882 222.027 261.274 223.055 264.493C223.283 265.24 224.54 265.93 225.454 266.045C230.423 266.735 233.279 263.86 235.164 259.722C238.077 253.283 237.334 246.845 235.449 240.177C234.135 235.636 232.822 235.463 229.109 237.647C227.281 238.74 225.739 240.464 224.483 242.189C221.741 245.81 221.056 250.064 220.941 256.1ZM175.019 240.579C175.076 237.13 173.305 234.428 170.678 234.026C162.396 232.761 155.313 239.659 156.456 247.937C157.027 251.846 157.484 251.731 161.254 252.766C167.936 254.605 175.819 247.132 175.019 240.579Z" fill="#FFD77C"/>
</g>
<path d="M220.501 325.673C223.38 323.361 225.635 321.469 227.267 319.995C228.899 318.499 230.271 316.947 231.381 315.337C232.515 313.705 233.081 312.107 233.081 310.543C233.081 309.07 232.719 307.914 231.993 307.075C231.291 306.214 230.146 305.783 228.559 305.783C227.018 305.783 225.817 306.271 224.955 307.245C224.117 308.197 223.663 309.478 223.595 311.087H220.603C220.694 308.549 221.465 306.588 222.915 305.205C224.366 303.823 226.236 303.131 228.525 303.131C230.86 303.131 232.707 303.777 234.067 305.069C235.45 306.361 236.141 308.141 236.141 310.407C236.141 312.289 235.575 314.125 234.441 315.915C233.331 317.683 232.061 319.247 230.633 320.607C229.205 321.945 227.381 323.509 225.159 325.299H236.855V327.883H220.501V325.673ZM240.432 315.609C240.432 311.711 241.067 308.673 242.336 306.497C243.605 304.299 245.827 303.199 249 303.199C252.151 303.199 254.361 304.299 255.63 306.497C256.899 308.673 257.534 311.711 257.534 315.609C257.534 319.576 256.899 322.659 255.63 324.857C254.361 327.056 252.151 328.155 249 328.155C245.827 328.155 243.605 327.056 242.336 324.857C241.067 322.659 240.432 319.576 240.432 315.609ZM254.474 315.609C254.474 313.637 254.338 311.971 254.066 310.611C253.817 309.229 253.284 308.118 252.468 307.279C251.675 306.441 250.519 306.021 249 306.021C247.459 306.021 246.28 306.441 245.464 307.279C244.671 308.118 244.138 309.229 243.866 310.611C243.617 311.971 243.492 313.637 243.492 315.609C243.492 317.649 243.617 319.361 243.866 320.743C244.138 322.126 244.671 323.237 245.464 324.075C246.28 324.914 247.459 325.333 249 325.333C250.519 325.333 251.675 324.914 252.468 324.075C253.284 323.237 253.817 322.126 254.066 320.743C254.338 319.361 254.474 317.649 254.474 315.609ZM261.408 325.673C264.286 323.361 266.542 321.469 268.174 319.995C269.806 318.499 271.177 316.947 272.288 315.337C273.421 313.705 273.988 312.107 273.988 310.543C273.988 309.07 273.625 307.914 272.9 307.075C272.197 306.214 271.052 305.783 269.466 305.783C267.924 305.783 266.723 306.271 265.862 307.245C265.023 308.197 264.57 309.478 264.502 311.087H261.51C261.6 308.549 262.371 306.588 263.822 305.205C265.272 303.823 267.142 303.131 269.432 303.131C271.766 303.131 273.614 303.777 274.974 305.069C276.356 306.361 277.048 308.141 277.048 310.407C277.048 312.289 276.481 314.125 275.348 315.915C274.237 317.683 272.968 319.247 271.54 320.607C270.112 321.945 268.287 323.509 266.066 325.299H277.762V327.883H261.408V325.673ZM281.27 309.761C281.429 307.676 282.234 306.044 283.684 304.865C285.135 303.687 287.016 303.097 289.328 303.097C290.87 303.097 292.196 303.381 293.306 303.947C294.44 304.491 295.29 305.239 295.856 306.191C296.446 307.143 296.74 308.22 296.74 309.421C296.74 310.827 296.332 312.039 295.516 313.059C294.723 314.079 293.68 314.737 292.388 315.031V315.201C293.862 315.564 295.029 316.278 295.89 317.343C296.752 318.409 297.182 319.803 297.182 321.525C297.182 322.817 296.888 323.985 296.298 325.027C295.709 326.047 294.825 326.852 293.646 327.441C292.468 328.031 291.051 328.325 289.396 328.325C286.994 328.325 285.022 327.702 283.48 326.455C281.939 325.186 281.078 323.395 280.896 321.083H283.888C284.047 322.443 284.602 323.554 285.554 324.415C286.506 325.277 287.776 325.707 289.362 325.707C290.949 325.707 292.15 325.299 292.966 324.483C293.805 323.645 294.224 322.568 294.224 321.253C294.224 319.553 293.658 318.329 292.524 317.581C291.391 316.833 289.68 316.459 287.39 316.459H286.608V313.875H287.424C289.51 313.853 291.085 313.513 292.15 312.855C293.216 312.175 293.748 311.133 293.748 309.727C293.748 308.526 293.352 307.563 292.558 306.837C291.788 306.112 290.677 305.749 289.226 305.749C287.821 305.749 286.688 306.112 285.826 306.837C284.965 307.563 284.455 308.537 284.296 309.761H281.27Z" fill="white"/>
<defs>
<filter id="filter0_d_920_2717" x="37.113" y="169.276" width="281.774" height="198.389" filterUnits="userSpaceOnUse" color-interpolation-filters="sRGB">
<feFlood flood-opacity="0" result="BackgroundImageFix"/>
<feColorMatrix in="SourceAlpha" type="matrix" values="0 0 0 0 0 0 0 0 0 0 0 0 0 0 0 0 0 0 127 0" result="hardAlpha"/>
<feOffset dx="6" dy="5"/>
<feComposite in2="hardAlpha" operator="out"/>
<feColorMatrix type="matrix" values="0 0 0 0 0.162118 0 0 0 0 0.009375 0 0 0 0 0.25 0 0 0 1 0"/>
<feBlend mode="normal" in2="BackgroundImageFix" result="effect1_dropShadow_920_2717"/>
<feBlend mode="normal" in="SourceGraphic" in2="effect1_dropShadow_920_2717" result="shape"/>
</filter>
</defs>
</svg>
